<svg xmlns="http://www.w3.org/2000/svg" xmlns:xlink="http://www.w3.org/1999/xlink" width="414" height="896" viewBox="0 0 414 896">
  <defs>
    <filter id="shape_dark" x="-102.5" y="-131.5" width="353" height="387" filterUnits="userSpaceOnUse">
      <feOffset dx="10" dy="10" input="SourceAlpha"/>
      <feGaussianBlur stdDeviation="7.5" result="blur"/>
      <feFlood flood-opacity="0.161"/>
      <feComposite operator="in" in2="blur"/>
      <feComposite in="SourceGraphic"/>
    </filter>
    <filter id="shape_light" x="-112.5" y="-147.5" width="332" height="378" filterUnits="userSpaceOnUse">
      <feOffset dx="-10" dy="-10" input="SourceAlpha"/>
      <feGaussianBlur stdDeviation="7.5" result="blur-2"/>
      <feFlood flood-color="#fefefe"/>
      <feComposite operator="in" in2="blur-2"/>
      <feComposite in="SourceGraphic"/>
    </filter>
    <filter id="shape_dark-2" x="-163.5" y="326.5" width="299" height="304" filterUnits="userSpaceOnUse">
      <feOffset dx="10" dy="10" input="SourceAlpha"/>
      <feGaussianBlur stdDeviation="7.5" result="blur-3"/>
      <feFlood flood-opacity="0.161"/>
      <feComposite operator="in" in2="blur-3"/>
      <feComposite in="SourceGraphic"/>
    </filter>
    <filter id="shape_light-2" x="-173.5" y="310.5" width="278" height="295" filterUnits="userSpaceOnUse">
      <feOffset dx="-10" dy="-10" input="SourceAlpha"/>
      <feGaussianBlur stdDeviation="7.5" result="blur-4"/>
      <feFlood flood-color="#fefefe"/>
      <feComposite operator="in" in2="blur-4"/>
      <feComposite in="SourceGraphic"/>
    </filter>
    <filter id="shape_dark-3" x="270.5" y="-37.5" width="513" height="507" filterUnits="userSpaceOnUse">
      <feOffset dx="10" dy="10" input="SourceAlpha"/>
      <feGaussianBlur stdDeviation="7.5" result="blur-5"/>
      <feFlood flood-opacity="0.161"/>
      <feComposite operator="in" in2="blur-5"/>
      <feComposite in="SourceGraphic"/>
    </filter>
    <filter id="shape_light-3" x="260.5" y="-53.5" width="492" height="498" filterUnits="userSpaceOnUse">
      <feOffset dx="-10" dy="-10" input="SourceAlpha"/>
      <feGaussianBlur stdDeviation="7.5" result="blur-6"/>
      <feFlood flood-color="#fefefe"/>
      <feComposite operator="in" in2="blur-6"/>
      <feComposite in="SourceGraphic"/>
    </filter>
    <filter id="shape_dark-4" x="-102.5" y="-131.5" width="353" height="387" filterUnits="userSpaceOnUse">
      <feOffset dx="10" dy="10" input="SourceAlpha"/>
      <feGaussianBlur stdDeviation="7.5" result="blur-7"/>
      <feFlood flood-opacity="0.161"/>
      <feComposite operator="in" in2="blur-7"/>
      <feComposite in="SourceGraphic"/>
    </filter>
    <filter id="shape_light-4" x="-112.5" y="-147.5" width="332" height="378" filterUnits="userSpaceOnUse">
      <feOffset dx="-10" dy="-10" input="SourceAlpha"/>
      <feGaussianBlur stdDeviation="7.5" result="blur-8"/>
      <feFlood flood-color="#fefefe"/>
      <feComposite operator="in" in2="blur-8"/>
      <feComposite in="SourceGraphic"/>
    </filter>
    <filter id="shape_dark-5" x="-163.5" y="326.5" width="299" height="304" filterUnits="userSpaceOnUse">
      <feOffset dx="10" dy="10" input="SourceAlpha"/>
      <feGaussianBlur stdDeviation="7.5" result="blur-9"/>
      <feFlood flood-opacity="0.161"/>
      <feComposite operator="in" in2="blur-9"/>
      <feComposite in="SourceGraphic"/>
    </filter>
    <filter id="shape_light-5" x="-173.5" y="310.5" width="278" height="295" filterUnits="userSpaceOnUse">
      <feOffset dx="-10" dy="-10" input="SourceAlpha"/>
      <feGaussianBlur stdDeviation="7.5" result="blur-10"/>
      <feFlood flood-color="#fefefe"/>
      <feComposite operator="in" in2="blur-10"/>
      <feComposite in="SourceGraphic"/>
    </filter>
    <filter id="shape_dark-6" x="270.5" y="-37.5" width="513" height="507" filterUnits="userSpaceOnUse">
      <feOffset dx="10" dy="10" input="SourceAlpha"/>
      <feGaussianBlur stdDeviation="7.5" result="blur-11"/>
      <feFlood flood-opacity="0.161"/>
      <feComposite operator="in" in2="blur-11"/>
      <feComposite in="SourceGraphic"/>
    </filter>
    <filter id="shape_light-6" x="260.5" y="-53.5" width="492" height="498" filterUnits="userSpaceOnUse">
      <feOffset dx="-10" dy="-10" input="SourceAlpha"/>
      <feGaussianBlur stdDeviation="7.5" result="blur-12"/>
      <feFlood flood-color="#fefefe"/>
      <feComposite operator="in" in2="blur-12"/>
      <feComposite in="SourceGraphic"/>
    </filter>
    <filter id="shape_dark-7" x="144.5" y="335.5" width="145" height="145" filterUnits="userSpaceOnUse">
      <feOffset dx="10" dy="10" input="SourceAlpha"/>
      <feGaussianBlur stdDeviation="7.5" result="blur-13"/>
      <feFlood flood-opacity="0.161"/>
      <feComposite operator="in" in2="blur-13"/>
      <feComposite in="SourceGraphic"/>
    </filter>
    <filter id="shape_light-7" x="124.5" y="315.5" width="145" height="145" filterUnits="userSpaceOnUse">
      <feOffset dx="-10" dy="-10" input="SourceAlpha"/>
      <feGaussianBlur stdDeviation="7.5" result="blur-14"/>
      <feFlood flood-color="#fefefe"/>
      <feComposite operator="in" in2="blur-14"/>
      <feComposite in="SourceGraphic"/>
    </filter>
    <filter id="Union_S" x="35" y="714.297" width="87.196" height="152.607" filterUnits="userSpaceOnUse">
      <feOffset dx="5" dy="5" input="SourceAlpha"/>
      <feGaussianBlur stdDeviation="5" result="blur-15"/>
      <feFlood flood-color="#97a7c3" flood-opacity="0.498"/>
      <feComposite operator="in" in2="blur-15"/>
      <feComposite in="SourceGraphic"/>
    </filter>
    <filter id="Union_L" x="25" y="704.297" width="87.196" height="152.607" filterUnits="userSpaceOnUse">
      <feOffset dx="-5" dy="-5" input="SourceAlpha"/>
      <feGaussianBlur stdDeviation="5" result="blur-16"/>
      <feFlood flood-color="#fff"/>
      <feComposite operator="in" in2="blur-16"/>
      <feComposite in="SourceGraphic"/>
    </filter>
    <filter id="Union_S-2" x="309.29" y="723.225" width="81.473" height="145.654" filterUnits="userSpaceOnUse">
      <feOffset dx="5" dy="5" input="SourceAlpha"/>
      <feGaussianBlur stdDeviation="5" result="blur-17"/>
      <feFlood flood-color="#97a7c3" flood-opacity="0.498"/>
      <feComposite operator="in" in2="blur-17"/>
      <feComposite in="SourceGraphic"/>
    </filter>
    <filter id="Union_L-2" x="299.29" y="713.225" width="81.473" height="145.654" filterUnits="userSpaceOnUse">
      <feOffset dx="-5" dy="-5" input="SourceAlpha"/>
      <feGaussianBlur stdDeviation="5" result="blur-18"/>
      <feFlood flood-color="#fff"/>
      <feComposite operator="in" in2="blur-18"/>
      <feComposite in="SourceGraphic"/>
    </filter>
    <filter id="Union_S-3" x="91.897" y="687" width="65.747" height="82.122" filterUnits="userSpaceOnUse">
      <feOffset dx="5" dy="5" input="SourceAlpha"/>
      <feGaussianBlur stdDeviation="5" result="blur-19"/>
      <feFlood flood-color="#97a7c3" flood-opacity="0.498"/>
      <feComposite operator="in" in2="blur-19"/>
      <feComposite in="SourceGraphic"/>
    </filter>
    <filter id="Union_L-3" x="81.897" y="677" width="65.747" height="82.122" filterUnits="userSpaceOnUse">
      <feOffset dx="-5" dy="-5" input="SourceAlpha"/>
      <feGaussianBlur stdDeviation="5" result="blur-20"/>
      <feFlood flood-color="#fff"/>
      <feComposite operator="in" in2="blur-20"/>
      <feComposite in="SourceGraphic"/>
    </filter>
    <filter id="Union_S-4" x="276.632" y="702.858" width="59.141" height="72.491" filterUnits="userSpaceOnUse">
      <feOffset dx="5" dy="5" input="SourceAlpha"/>
      <feGaussianBlur stdDeviation="5" result="blur-21"/>
      <feFlood flood-color="#97a7c3" flood-opacity="0.498"/>
      <feComposite operator="in" in2="blur-21"/>
      <feComposite in="SourceGraphic"/>
    </filter>
    <filter id="Union_L-4" x="266.632" y="692.858" width="59.141" height="72.491" filterUnits="userSpaceOnUse">
      <feOffset dx="-5" dy="-5" input="SourceAlpha"/>
      <feGaussianBlur stdDeviation="5" result="blur-22"/>
      <feFlood flood-color="#fff"/>
      <feComposite operator="in" in2="blur-22"/>
      <feComposite in="SourceGraphic"/>
    </filter>
    <filter id="Union_S-5" x="117.083" y="785.91" width="75.778" height="96.748" filterUnits="userSpaceOnUse">
      <feOffset dx="5" dy="5" input="SourceAlpha"/>
      <feGaussianBlur stdDeviation="5" result="blur-23"/>
      <feFlood flood-color="#97a7c3" flood-opacity="0.498"/>
      <feComposite operator="in" in2="blur-23"/>
      <feComposite in="SourceGraphic"/>
    </filter>
    <filter id="Union_L-5" x="107.083" y="775.91" width="75.778" height="96.748" filterUnits="userSpaceOnUse">
      <feOffset dx="-5" dy="-5" input="SourceAlpha"/>
      <feGaussianBlur stdDeviation="5" result="blur-24"/>
      <feFlood flood-color="#fff"/>
      <feComposite operator="in" in2="blur-24"/>
      <feComposite in="SourceGraphic"/>
    </filter>
    <filter id="Union_S-6" x="545.804" y="714.297" width="87.196" height="152.607" filterUnits="userSpaceOnUse">
      <feOffset dx="5" dy="5" input="SourceAlpha"/>
      <feGaussianBlur stdDeviation="5" result="blur-25"/>
      <feFlood flood-color="#97a7c3" flood-opacity="0.498"/>
      <feComposite operator="in" in2="blur-25"/>
      <feComposite in="SourceGraphic"/>
    </filter>
    <filter id="Union_L-6" x="535.804" y="704.297" width="87.196" height="152.607" filterUnits="userSpaceOnUse">
      <feOffset dx="-5" dy="-5" input="SourceAlpha"/>
      <feGaussianBlur stdDeviation="5" result="blur-26"/>
      <feFlood flood-color="#fff"/>
      <feComposite operator="in" in2="blur-26"/>
      <feComposite in="SourceGraphic"/>
    </filter>
    <filter id="Union_S-7" x="510.356" y="687" width="65.747" height="82.122" filterUnits="userSpaceOnUse">
      <feOffset dx="5" dy="5" input="SourceAlpha"/>
      <feGaussianBlur stdDeviation="5" result="blur-27"/>
      <feFlood flood-color="#97a7c3" flood-opacity="0.498"/>
      <feComposite operator="in" in2="blur-27"/>
      <feComposite in="SourceGraphic"/>
    </filter>
    <filter id="Union_L-7" x="500.356" y="677" width="65.747" height="82.122" filterUnits="userSpaceOnUse">
      <feOffset dx="-5" dy="-5" input="SourceAlpha"/>
      <feGaussianBlur stdDeviation="5" result="blur-28"/>
      <feFlood flood-color="#fff"/>
      <feComposite operator="in" in2="blur-28"/>
      <feComposite in="SourceGraphic"/>
    </filter>
    <filter id="Union_S-8" x="475.139" y="785.91" width="75.778" height="96.748" filterUnits="userSpaceOnUse">
      <feOffset dx="5" dy="5" input="SourceAlpha"/>
      <feGaussianBlur stdDeviation="5" result="blur-29"/>
      <feFlood flood-color="#97a7c3" flood-opacity="0.498"/>
      <feComposite operator="in" in2="blur-29"/>
      <feComposite in="SourceGraphic"/>
    </filter>
    <filter id="Union_L-8" x="465.139" y="775.91" width="75.778" height="96.748" filterUnits="userSpaceOnUse">
      <feOffset dx="-5" dy="-5" input="SourceAlpha"/>
      <feGaussianBlur stdDeviation="5" result="blur-30"/>
      <feFlood flood-color="#fff"/>
      <feComposite operator="in" in2="blur-30"/>
      <feComposite in="SourceGraphic"/>
    </filter>
    <filter id="Union_S-9" x="35" y="714.297" width="87.196" height="152.607" filterUnits="userSpaceOnUse">
      <feOffset dx="5" dy="5" input="SourceAlpha"/>
      <feGaussianBlur stdDeviation="5" result="blur-31"/>
      <feFlood flood-color="#97a7c3" flood-opacity="0.498"/>
      <feComposite operator="in" in2="blur-31"/>
      <feComposite in="SourceGraphic"/>
    </filter>
    <filter id="Union_L-9" x="25" y="704.297" width="87.196" height="152.607" filterUnits="userSpaceOnUse">
      <feOffset dx="-5" dy="-5" input="SourceAlpha"/>
      <feGaussianBlur stdDeviation="5" result="blur-32"/>
      <feFlood flood-color="#fff"/>
      <feComposite operator="in" in2="blur-32"/>
      <feComposite in="SourceGraphic"/>
    </filter>
    <filter id="Union_S-10" x="309.29" y="723.225" width="81.473" height="145.654" filterUnits="userSpaceOnUse">
      <feOffset dx="5" dy="5" input="SourceAlpha"/>
      <feGaussianBlur stdDeviation="5" result="blur-33"/>
      <feFlood flood-color="#97a7c3" flood-opacity="0.498"/>
      <feComposite operator="in" in2="blur-33"/>
      <feComposite in="SourceGraphic"/>
    </filter>
    <filter id="Union_L-10" x="299.29" y="713.225" width="81.473" height="145.654" filterUnits="userSpaceOnUse">
      <feOffset dx="-5" dy="-5" input="SourceAlpha"/>
      <feGaussianBlur stdDeviation="5" result="blur-34"/>
      <feFlood flood-color="#fff"/>
      <feComposite operator="in" in2="blur-34"/>
      <feComposite in="SourceGraphic"/>
    </filter>
    <filter id="Union_S-11" x="91.897" y="687" width="65.747" height="82.122" filterUnits="userSpaceOnUse">
      <feOffset dx="5" dy="5" input="SourceAlpha"/>
      <feGaussianBlur stdDeviation="5" result="blur-35"/>
      <feFlood flood-color="#97a7c3" flood-opacity="0.498"/>
      <feComposite operator="in" in2="blur-35"/>
      <feComposite in="SourceGraphic"/>
    </filter>
    <filter id="Union_L-11" x="81.897" y="677" width="65.747" height="82.122" filterUnits="userSpaceOnUse">
      <feOffset dx="-5" dy="-5" input="SourceAlpha"/>
      <feGaussianBlur stdDeviation="5" result="blur-36"/>
      <feFlood flood-color="#fff"/>
      <feComposite operator="in" in2="blur-36"/>
      <feComposite in="SourceGraphic"/>
    </filter>
    <filter id="Union_S-12" x="276.632" y="702.858" width="59.141" height="72.491" filterUnits="userSpaceOnUse">
      <feOffset dx="5" dy="5" input="SourceAlpha"/>
      <feGaussianBlur stdDeviation="5" result="blur-37"/>
      <feFlood flood-color="#97a7c3" flood-opacity="0.498"/>
      <feComposite operator="in" in2="blur-37"/>
      <feComposite in="SourceGraphic"/>
    </filter>
    <filter id="Union_L-12" x="266.632" y="692.858" width="59.141" height="72.491" filterUnits="userSpaceOnUse">
      <feOffset dx="-5" dy="-5" input="SourceAlpha"/>
      <feGaussianBlur stdDeviation="5" result="blur-38"/>
      <feFlood flood-color="#fff"/>
      <feComposite operator="in" in2="blur-38"/>
      <feComposite in="SourceGraphic"/>
    </filter>
    <filter id="Union_S-13" x="117.083" y="785.91" width="75.778" height="96.748" filterUnits="userSpaceOnUse">
      <feOffset dx="5" dy="5" input="SourceAlpha"/>
      <feGaussianBlur stdDeviation="5" result="blur-39"/>
      <feFlood flood-color="#97a7c3" flood-opacity="0.498"/>
      <feComposite operator="in" in2="blur-39"/>
      <feComposite in="SourceGraphic"/>
    </filter>
    <filter id="Union_L-13" x="107.083" y="775.91" width="75.778" height="96.748" filterUnits="userSpaceOnUse">
      <feOffset dx="-5" dy="-5" input="SourceAlpha"/>
      <feGaussianBlur stdDeviation="5" result="blur-40"/>
      <feFlood flood-color="#fff"/>
      <feComposite operator="in" in2="blur-40"/>
      <feComposite in="SourceGraphic"/>
    </filter>
    <filter id="Union_S-14" x="545.804" y="714.297" width="87.196" height="152.607" filterUnits="userSpaceOnUse">
      <feOffset dx="5" dy="5" input="SourceAlpha"/>
      <feGaussianBlur stdDeviation="5" result="blur-41"/>
      <feFlood flood-color="#97a7c3" flood-opacity="0.498"/>
      <feComposite operator="in" in2="blur-41"/>
      <feComposite in="SourceGraphic"/>
    </filter>
    <filter id="Union_L-14" x="535.804" y="704.297" width="87.196" height="152.607" filterUnits="userSpaceOnUse">
      <feOffset dx="-5" dy="-5" input="SourceAlpha"/>
      <feGaussianBlur stdDeviation="5" result="blur-42"/>
      <feFlood flood-color="#fff"/>
      <feComposite operator="in" in2="blur-42"/>
      <feComposite in="SourceGraphic"/>
    </filter>
    <filter id="Union_S-15" x="510.356" y="687" width="65.747" height="82.122" filterUnits="userSpaceOnUse">
      <feOffset dx="5" dy="5" input="SourceAlpha"/>
      <feGaussianBlur stdDeviation="5" result="blur-43"/>
      <feFlood flood-color="#97a7c3" flood-opacity="0.498"/>
      <feComposite operator="in" in2="blur-43"/>
      <feComposite in="SourceGraphic"/>
    </filter>
    <filter id="Union_L-15" x="500.356" y="677" width="65.747" height="82.122" filterUnits="userSpaceOnUse">
      <feOffset dx="-5" dy="-5" input="SourceAlpha"/>
      <feGaussianBlur stdDeviation="5" result="blur-44"/>
      <feFlood flood-color="#fff"/>
      <feComposite operator="in" in2="blur-44"/>
      <feComposite in="SourceGraphic"/>
    </filter>
    <filter id="Union_S-16" x="475.139" y="785.91" width="75.778" height="96.748" filterUnits="userSpaceOnUse">
      <feOffset dx="5" dy="5" input="SourceAlpha"/>
      <feGaussianBlur stdDeviation="5" result="blur-45"/>
      <feFlood flood-color="#97a7c3" flood-opacity="0.498"/>
      <feComposite operator="in" in2="blur-45"/>
      <feComposite in="SourceGraphic"/>
    </filter>
    <filter id="Union_L-16" x="465.139" y="775.91" width="75.778" height="96.748" filterUnits="userSpaceOnUse">
      <feOffset dx="-5" dy="-5" input="SourceAlpha"/>
      <feGaussianBlur stdDeviation="5" result="blur-46"/>
      <feFlood flood-color="#fff"/>
      <feComposite operator="in" in2="blur-46"/>
      <feComposite in="SourceGraphic"/>
    </filter>
    <clipPath id="clip-start">
      <rect width="414" height="896"/>
    </clipPath>
  </defs>
  <g id="start" clip-path="url(#clip-start)">
    <rect width="414" height="896" fill="#ecf0f3"/>
    <g id="circles" transform="translate(-5 -25)" opacity="0.55">
      <g id="shape" transform="translate(-14 -226.996)">
        <g transform="matrix(1, 0, 0, 1, 19, 252)" filter="url(#shape_dark)">
          <ellipse id="shape_dark-8" data-name="shape dark" cx="154" cy="171" rx="154" ry="171" transform="translate(-90 -119)" fill="#ecf0f3"/>
        </g>
        <g transform="matrix(1, 0, 0, 1, 19, 252)" filter="url(#shape_light)">
          <ellipse id="shape_light-8" data-name="shape light" cx="143.5" cy="166.5" rx="143.5" ry="166.5" transform="translate(-80 -115)" fill="#ecf0f3"/>
        </g>
      </g>
      <g id="shape-2" data-name="shape" transform="translate(-75 231.004)">
        <g transform="matrix(1, 0, 0, 1, 80, -206)" filter="url(#shape_dark-2)">
          <ellipse id="shape_dark-9" data-name="shape dark" cx="127" cy="129.5" rx="127" ry="129.5" transform="translate(-151 339)" fill="#ecf0f3"/>
        </g>
        <g transform="matrix(1, 0, 0, 1, 80, -206)" filter="url(#shape_light-2)">
          <ellipse id="shape_light-9" data-name="shape light" cx="116.5" cy="125" rx="116.5" ry="125" transform="translate(-141 343)" fill="#ecf0f3"/>
        </g>
      </g>
      <g id="shape-3" data-name="shape" transform="translate(359 -132.996)">
        <g transform="matrix(1, 0, 0, 1, -354, 158)" filter="url(#shape_dark-3)">
          <ellipse id="shape_dark-10" data-name="shape dark" cx="234" cy="231" rx="234" ry="231" transform="translate(283 -25)" fill="#ecf0f3"/>
        </g>
        <g transform="matrix(1, 0, 0, 1, -354, 158)" filter="url(#shape_light-3)">
          <ellipse id="shape_light-10" data-name="shape light" cx="223.5" cy="226.5" rx="223.5" ry="226.5" transform="translate(293 -21)" fill="#ecf0f3"/>
        </g>
      </g>
    </g>
    <g id="circles-2" data-name="circles" transform="translate(-5 -25)" opacity="0.55">
      <g id="shape-4" data-name="shape" transform="translate(-14 -226.996)">
        <g transform="matrix(1, 0, 0, 1, 19, 252)" filter="url(#shape_dark-4)">
          <ellipse id="shape_dark-11" data-name="shape dark" cx="154" cy="171" rx="154" ry="171" transform="translate(-90 -119)" fill="#ecf0f3"/>
        </g>
        <g transform="matrix(1, 0, 0, 1, 19, 252)" filter="url(#shape_light-4)">
          <ellipse id="shape_light-11" data-name="shape light" cx="143.5" cy="166.5" rx="143.5" ry="166.5" transform="translate(-80 -115)" fill="#ecf0f3"/>
        </g>
      </g>
      <g id="shape-5" data-name="shape" transform="translate(-75 231.004)">
        <g transform="matrix(1, 0, 0, 1, 80, -206)" filter="url(#shape_dark-5)">
          <ellipse id="shape_dark-12" data-name="shape dark" cx="127" cy="129.5" rx="127" ry="129.5" transform="translate(-151 339)" fill="#ecf0f3"/>
        </g>
        <g transform="matrix(1, 0, 0, 1, 80, -206)" filter="url(#shape_light-5)">
          <ellipse id="shape_light-12" data-name="shape light" cx="116.5" cy="125" rx="116.5" ry="125" transform="translate(-141 343)" fill="#ecf0f3"/>
        </g>
      </g>
      <g id="shape-6" data-name="shape" transform="translate(359 -132.996)">
        <g transform="matrix(1, 0, 0, 1, -354, 158)" filter="url(#shape_dark-6)">
          <ellipse id="shape_dark-13" data-name="shape dark" cx="234" cy="231" rx="234" ry="231" transform="translate(283 -25)" fill="#ecf0f3"/>
        </g>
        <g transform="matrix(1, 0, 0, 1, -354, 158)" filter="url(#shape_light-6)">
          <ellipse id="shape_light-13" data-name="shape light" cx="223.5" cy="226.5" rx="223.5" ry="226.5" transform="translate(293 -21)" fill="#ecf0f3"/>
        </g>
      </g>
    </g>
    <g id="shape-7" data-name="shape" transform="translate(0 16)">
      <g transform="matrix(1, 0, 0, 1, 0, -16)" filter="url(#shape_dark-7)">
        <circle id="shape_dark-14" data-name="shape dark" cx="50" cy="50" r="50" transform="translate(157 348)" fill="#ecf0f3"/>
      </g>
      <g transform="matrix(1, 0, 0, 1, 0, -16)" filter="url(#shape_light-7)">
        <circle id="shape_light-14" data-name="shape light" cx="50" cy="50" r="50" transform="translate(157 348)" fill="#ecf0f3"/>
      </g>
      <g id="logo">
        <circle id="Ellipse_1" data-name="Ellipse 1" cx="30" cy="30" r="30" transform="translate(177 352)" fill="#193566"/>
        <circle id="Ellipse_2" data-name="Ellipse 2" cx="22.5" cy="22.5" r="22.5" transform="translate(192 352)" fill="#d1d9e6"/>
      </g>
    </g>
    <g id="Trees" transform="translate(45 697)">
      <g id="Group_29" data-name="Group 29" transform="translate(0 27.297)">
        <g transform="matrix(1, 0, 0, 1, -45, -724.3)" filter="url(#Union_S)">
          <path id="Union_S-17" data-name="Union S" d="M28.917,0c49.169,84.268,24.232,122.607,0,122.607Zm0,0V122.607C4.138,122.607-21.362,84.268,28.917,0Z" transform="translate(45 724.3)" fill="#ecf0f3"/>
        </g>
        <g transform="matrix(1, 0, 0, 1, -45, -724.3)" filter="url(#Union_L)">
          <path id="Union_L-17" data-name="Union L" d="M28.917,0c49.169,84.268,24.232,122.607,0,122.607Zm0,0V122.607C4.138,122.607-21.362,84.268,28.917,0Z" transform="translate(45 724.3)" fill="#ecf0f3"/>
        </g>
        <path id="Path_58" data-name="Path 58" d="M1412.9,2753.343l-.472,20.612-6-6.278,6,7.832v19.941l-12.848-6.087-1.9-10.843,1.412,11.318,13.338,6.927-.34,20.293-21.307-14.855,21.307,16.37-.316,28.829h1.558l-.008-39,17.881-17.8-17.881,16.074.1-26.792,7.228-7.02-7.228,5.659Z" transform="translate(-1383.827 -2708.876)" fill="#193566"/>
        <ellipse id="Ellipse_18" data-name="Ellipse 18" cx="17.5" cy="4" rx="17.5" ry="4" transform="translate(11.069 135.326)" fill="#193566" opacity="0.3"/>
      </g>
      <g id="Group_33" data-name="Group 33" transform="translate(274.29 36.225)">
        <g transform="matrix(1, 0, 0, 1, -319.29, -733.23)" filter="url(#Union_S-2)">
          <path id="Union_S-18" data-name="Union S" d="M26.024,0c44.249,79.489,21.807,115.654,0,115.654Zm0,0V115.654C3.724,115.654-19.224,79.489,26.024,0Z" transform="translate(319.29 733.23)" fill="#ecf0f3"/>
        </g>
        <g transform="matrix(1, 0, 0, 1, -319.29, -733.23)" filter="url(#Union_L-2)">
          <path id="Union_L-18" data-name="Union L" d="M26.024,0c44.249,79.489,21.807,115.654,0,115.654Zm0,0V115.654C3.724,115.654-19.224,79.489,26.024,0Z" transform="translate(319.29 733.23)" fill="#ecf0f3"/>
        </g>
        <path id="Path_58-2" data-name="Path 58" d="M1410.895,2753.343l-.429,18.876-5.457-5.749,5.457,7.172v18.262l-11.685-5.574-1.73-9.93,1.285,10.365,12.131,6.344-.309,18.584-19.378-13.6,19.378,14.992-.287,26.4h1.417l-.007-35.72,16.262-16.3-16.262,14.721.088-24.537,6.573-6.428-6.573,5.182Z" transform="translate(-1384.456 -2709.353)" fill="#193566"/>
        <ellipse id="Ellipse_18-2" data-name="Ellipse 18" cx="15.5" cy="3.5" rx="15.5" ry="3.5" transform="translate(10.626 127.397)" fill="#193566" opacity="0.3"/>
      </g>
      <g id="Group_30" data-name="Group 30" transform="translate(56.897 0)">
        <g transform="matrix(1, 0, 0, 1, -101.9, -697)" filter="url(#Union_S-3)">
          <path id="Union_S-19" data-name="Union S" d="M18.073,0c30.729,35.823,15.145,52.122,0,52.122Zm0,0V52.122C2.586,52.122-13.351,35.823,18.073,0Z" transform="translate(101.9 697)" fill="#ecf0f3"/>
        </g>
        <g transform="matrix(1, 0, 0, 1, -101.9, -697)" filter="url(#Union_L-3)">
          <path id="Union_L-19" data-name="Union L" d="M18.073,0c30.729,35.823,15.145,52.122,0,52.122Zm0,0V52.122C2.586,52.122-13.351,35.823,18.073,0Z" transform="translate(101.9 697)" fill="#ecf0f3"/>
        </g>
        <path id="Path_58-3" data-name="Path 58" d="M1404.6,2753.343l-.3,12.882-3.75-3.923,3.75,4.895v12.463l-8.03-3.8-1.189-6.776.883,7.073,8.336,4.329-.212,12.683-13.316-9.284,13.316,10.231-.2,18.018h.974l-.005-24.376,11.175-11.125-11.175,10.046.06-16.744,4.517-4.387-4.517,3.537Z" transform="translate(-1386.434 -2750.058)" fill="#193566"/>
        <ellipse id="Ellipse_18-3" data-name="Ellipse 18" cx="10.5" cy="2" rx="10.5" ry="2" transform="translate(7.172 60.413)" fill="#193566" opacity="0.3"/>
      </g>
      <g id="Group_34" data-name="Group 34" transform="translate(241.632 15.858)">
        <g transform="matrix(1, 0, 0, 1, -286.63, -712.86)" filter="url(#Union_S-4)">
          <path id="Union_S-20" data-name="Union S" d="M14.733,0c25.051,29.2,12.346,42.491,0,42.491Zm0,0V42.491C2.108,42.491-10.884,29.2,14.733,0Z" transform="translate(286.63 712.86)" fill="#ecf0f3"/>
        </g>
        <g transform="matrix(1, 0, 0, 1, -286.63, -712.86)" filter="url(#Union_L-4)">
          <path id="Union_L-20" data-name="Union L" d="M14.733,0c25.051,29.2,12.346,42.491,0,42.491Zm0,0V42.491C2.108,42.491-10.884,29.2,14.733,0Z" transform="translate(286.63 712.86)" fill="#ecf0f3"/>
        </g>
        <path id="Path_58-4" data-name="Path 58" d="M1402.048,2753.343l-.24,10.5-3.057-3.2,3.057,3.99v10.16l-6.546-3.1-.969-5.524.72,5.766,6.8,3.529-.173,10.34-10.856-7.569,10.856,8.341-.161,14.688h.794l0-19.872,9.11-9.069-9.11,8.189.049-13.65,3.682-3.577-3.682,2.884Z" transform="translate(-1387.237 -2750.665)" fill="#193566"/>
        <ellipse id="Ellipse_18-4" data-name="Ellipse 18" cx="8.5" cy="1.5" rx="8.5" ry="1.5" transform="translate(5.884 49.555)" fill="#193566" opacity="0.3"/>
      </g>
      <g id="Group_31" data-name="Group 31" transform="translate(82.083 98.91)">
        <g transform="matrix(1, 0, 0, 1, -127.08, -795.91)" filter="url(#Union_S-5)">
          <path id="Union_S-21" data-name="Union S" d="M23.144,66.748C62.5,20.872,42.539,0,23.144,0Zm0,0V0C3.312,0-17.1,20.872,23.144,66.748Z" transform="translate(172.86 862.66) rotate(180)" fill="#ecf0f3"/>
        </g>
        <g transform="matrix(1, 0, 0, 1, -127.08, -795.91)" filter="url(#Union_L-5)">
          <path id="Union_L-21" data-name="Union L" d="M23.144,66.748C62.5,20.872,42.539,0,23.144,0Zm0,0V0C3.312,0-17.1,20.872,23.144,66.748Z" transform="translate(172.86 862.66) rotate(180)" fill="#ecf0f3"/>
        </g>
        <path id="Path_58-5" data-name="Path 58" d="M1405.429,2753.343l.378,16.5,4.8-5.024-4.8,6.268v15.96l10.283-4.872,1.522-8.678-1.13,9.059-10.675,5.544.272,16.242,17.053-11.89-17.053,13.1.253,23.074h-1.247l.006-31.217-14.312-14.247,14.312,12.865-.077-21.443-5.785-5.619,5.785,4.529Z" transform="translate(-1382.918 -2749.136)" fill="#193566"/>
        <ellipse id="Ellipse_18-5" data-name="Ellipse 18" cx="13.738" cy="2.986" rx="13.738" ry="2.986" transform="translate(9.129 77.117)" fill="#193566" opacity="0.3"/>
      </g>
      <g id="Group_35" data-name="Group 35" transform="translate(510.804 27.297)">
        <g transform="matrix(1, 0, 0, 1, -555.8, -724.3)" filter="url(#Union_S-6)">
          <path id="Union_S-22" data-name="Union S" d="M28.917,122.607C78.086,38.339,53.149,0,28.917,0Zm0,0V0C4.138,0-21.362,38.339,28.917,122.607Z" transform="translate(613 846.9) rotate(180)" fill="#ecf0f3"/>
        </g>
        <g transform="matrix(1, 0, 0, 1, -555.8, -724.3)" filter="url(#Union_L-6)">
          <path id="Union_L-22" data-name="Union L" d="M28.917,122.607C78.086,38.339,53.149,0,28.917,0Zm0,0V0C4.138,0-21.362,38.339,28.917,122.607Z" transform="translate(613 846.9) rotate(180)" fill="#ecf0f3"/>
        </g>
        <path id="Path_58-6" data-name="Path 58" d="M1409.083,2753.343l.472,20.612,6-6.278-6,7.832v19.942l12.848-6.087,1.9-10.843-1.412,11.318-13.338,6.927.339,20.293L1431.2,2802.2l-21.307,16.37.316,28.829h-1.558l.008-39-17.881-17.8,17.881,16.074-.1-26.792-7.228-7.02,7.228,5.659Z" transform="translate(-1380.957 -2708.877)" fill="#193566"/>
        <ellipse id="Ellipse_18-6" data-name="Ellipse 18" cx="17.724" cy="3.731" rx="17.724" ry="3.731" transform="translate(10.859 135.563)" fill="#193566" opacity="0.3"/>
      </g>
      <g id="Group_36" data-name="Group 36" transform="translate(475.356)">
        <g transform="matrix(1, 0, 0, 1, -520.36, -697)" filter="url(#Union_S-7)">
          <path id="Union_S-23" data-name="Union S" d="M18.073,52.122C48.8,16.3,33.217,0,18.073,0Zm0,0V0C2.586,0-13.351,16.3,18.073,52.122Z" transform="translate(556.1 749.12) rotate(180)" fill="#ecf0f3"/>
        </g>
        <g transform="matrix(1, 0, 0, 1, -520.36, -697)" filter="url(#Union_L-7)">
          <path id="Union_L-23" data-name="Union L" d="M18.073,52.122C48.8,16.3,33.217,0,18.073,0Zm0,0V0C2.586,0-13.351,16.3,18.073,52.122Z" transform="translate(556.1 749.12) rotate(180)" fill="#ecf0f3"/>
        </g>
        <path id="Path_58-7" data-name="Path 58" d="M1402.219,2753.343l.3,12.882,3.75-3.923-3.75,4.895v12.463l8.03-3.8,1.189-6.777-.883,7.073-8.336,4.329.212,12.683,13.316-9.284-13.316,10.231.2,18.018h-.974l.005-24.376-11.175-11.125,11.175,10.046-.06-16.745-4.517-4.387,4.517,3.537Z" transform="translate(-1384.64 -2750.057)" fill="#193566"/>
        <ellipse id="Ellipse_18-7" data-name="Ellipse 18" cx="10.727" cy="2.332" rx="10.727" ry="2.332" transform="translate(7.128 60.218)" fill="#193566" opacity="0.3"/>
      </g>
      <g id="Group_37" data-name="Group 37" transform="translate(440.139 98.91)">
        <g transform="matrix(1, 0, 0, 1, -485.14, -795.91)" filter="url(#Union_S-8)">
          <path id="Union_S-24" data-name="Union S" d="M23.144,0c39.353,45.876,19.395,66.748,0,66.748Zm0,0V66.748C3.312,66.748-17.1,45.876,23.144,0Z" transform="translate(485.14 795.91)" fill="#ecf0f3"/>
        </g>
        <g transform="matrix(1, 0, 0, 1, -485.14, -795.91)" filter="url(#Union_L-8)">
          <path id="Union_L-24" data-name="Union L" d="M23.144,0c39.353,45.876,19.395,66.748,0,66.748Zm0,0V66.748C3.312,66.748-17.1,45.876,23.144,0Z" transform="translate(485.14 795.91)" fill="#ecf0f3"/>
        </g>
        <path id="Path_58-8" data-name="Path 58" d="M1408.481,2753.343l-.378,16.5-4.8-5.024,4.8,6.268v15.961l-10.283-4.872-1.522-8.678,1.13,9.059,10.675,5.544-.272,16.242-17.053-11.89,17.053,13.1-.253,23.074h1.247l-.007-31.217,14.312-14.247-14.312,12.865.077-21.444,5.785-5.618-5.785,4.529Z" transform="translate(-1385.214 -2749.136)" fill="#193566"/>
        <ellipse id="Ellipse_18-8" data-name="Ellipse 18" cx="13.738" cy="2.986" rx="13.738" ry="2.986" transform="translate(9.173 77.117)" fill="#193566" opacity="0.3"/>
      </g>
    </g>
    <g id="Trees-2" data-name="Trees" transform="translate(45 697)">
      <g id="Group_29-2" data-name="Group 29" transform="translate(0 27.297)">
        <g transform="matrix(1, 0, 0, 1, -45, -724.3)" filter="url(#Union_S-9)">
          <path id="Union_S-25" data-name="Union S" d="M28.917,0c49.169,84.268,24.232,122.607,0,122.607Zm0,0V122.607C4.138,122.607-21.362,84.268,28.917,0Z" transform="translate(45 724.3)" fill="#ecf0f3"/>
        </g>
        <g transform="matrix(1, 0, 0, 1, -45, -724.3)" filter="url(#Union_L-9)">
          <path id="Union_L-25" data-name="Union L" d="M28.917,0c49.169,84.268,24.232,122.607,0,122.607Zm0,0V122.607C4.138,122.607-21.362,84.268,28.917,0Z" transform="translate(45 724.3)" fill="#ecf0f3"/>
        </g>
        <path id="Path_58-9" data-name="Path 58" d="M1412.9,2753.343l-.472,20.612-6-6.278,6,7.832v19.941l-12.848-6.087-1.9-10.843,1.412,11.318,13.338,6.927-.34,20.293-21.307-14.855,21.307,16.37-.316,28.829h1.558l-.008-39,17.881-17.8-17.881,16.074.1-26.792,7.228-7.02-7.228,5.659Z" transform="translate(-1383.827 -2708.876)" fill="#193566"/>
        <ellipse id="Ellipse_18-9" data-name="Ellipse 18" cx="17.5" cy="4" rx="17.5" ry="4" transform="translate(11.069 135.326)" fill="#193566" opacity="0.3"/>
      </g>
      <g id="Group_33-2" data-name="Group 33" transform="translate(274.29 36.225)">
        <g transform="matrix(1, 0, 0, 1, -319.29, -733.23)" filter="url(#Union_S-10)">
          <path id="Union_S-26" data-name="Union S" d="M26.024,0c44.249,79.489,21.807,115.654,0,115.654Zm0,0V115.654C3.724,115.654-19.224,79.489,26.024,0Z" transform="translate(319.29 733.23)" fill="#ecf0f3"/>
        </g>
        <g transform="matrix(1, 0, 0, 1, -319.29, -733.23)" filter="url(#Union_L-10)">
          <path id="Union_L-26" data-name="Union L" d="M26.024,0c44.249,79.489,21.807,115.654,0,115.654Zm0,0V115.654C3.724,115.654-19.224,79.489,26.024,0Z" transform="translate(319.29 733.23)" fill="#ecf0f3"/>
        </g>
        <path id="Path_58-10" data-name="Path 58" d="M1410.895,2753.343l-.429,18.876-5.457-5.749,5.457,7.172v18.262l-11.685-5.574-1.73-9.93,1.285,10.365,12.131,6.344-.309,18.584-19.378-13.6,19.378,14.992-.287,26.4h1.417l-.007-35.72,16.262-16.3-16.262,14.721.088-24.537,6.573-6.428-6.573,5.182Z" transform="translate(-1384.456 -2709.353)" fill="#193566"/>
        <ellipse id="Ellipse_18-10" data-name="Ellipse 18" cx="15.5" cy="3.5" rx="15.5" ry="3.5" transform="translate(10.626 127.397)" fill="#193566" opacity="0.3"/>
      </g>
      <g id="Group_30-2" data-name="Group 30" transform="translate(56.897 0)">
        <g transform="matrix(1, 0, 0, 1, -101.9, -697)" filter="url(#Union_S-11)">
          <path id="Union_S-27" data-name="Union S" d="M18.073,0c30.729,35.823,15.145,52.122,0,52.122Zm0,0V52.122C2.586,52.122-13.351,35.823,18.073,0Z" transform="translate(101.9 697)" fill="#ecf0f3"/>
        </g>
        <g transform="matrix(1, 0, 0, 1, -101.9, -697)" filter="url(#Union_L-11)">
          <path id="Union_L-27" data-name="Union L" d="M18.073,0c30.729,35.823,15.145,52.122,0,52.122Zm0,0V52.122C2.586,52.122-13.351,35.823,18.073,0Z" transform="translate(101.9 697)" fill="#ecf0f3"/>
        </g>
        <path id="Path_58-11" data-name="Path 58" d="M1404.6,2753.343l-.3,12.882-3.75-3.923,3.75,4.895v12.463l-8.03-3.8-1.189-6.776.883,7.073,8.336,4.329-.212,12.683-13.316-9.284,13.316,10.231-.2,18.018h.974l-.005-24.376,11.175-11.125-11.175,10.046.06-16.744,4.517-4.387-4.517,3.537Z" transform="translate(-1386.434 -2750.058)" fill="#193566"/>
        <ellipse id="Ellipse_18-11" data-name="Ellipse 18" cx="10.5" cy="2" rx="10.5" ry="2" transform="translate(7.172 60.413)" fill="#193566" opacity="0.3"/>
      </g>
      <g id="Group_34-2" data-name="Group 34" transform="translate(241.632 15.858)">
        <g transform="matrix(1, 0, 0, 1, -286.63, -712.86)" filter="url(#Union_S-12)">
          <path id="Union_S-28" data-name="Union S" d="M14.733,0c25.051,29.2,12.346,42.491,0,42.491Zm0,0V42.491C2.108,42.491-10.884,29.2,14.733,0Z" transform="translate(286.63 712.86)" fill="#ecf0f3"/>
        </g>
        <g transform="matrix(1, 0, 0, 1, -286.63, -712.86)" filter="url(#Union_L-12)">
          <path id="Union_L-28" data-name="Union L" d="M14.733,0c25.051,29.2,12.346,42.491,0,42.491Zm0,0V42.491C2.108,42.491-10.884,29.2,14.733,0Z" transform="translate(286.63 712.86)" fill="#ecf0f3"/>
        </g>
        <path id="Path_58-12" data-name="Path 58" d="M1402.048,2753.343l-.24,10.5-3.057-3.2,3.057,3.99v10.16l-6.546-3.1-.969-5.524.72,5.766,6.8,3.529-.173,10.34-10.856-7.569,10.856,8.341-.161,14.688h.794l0-19.872,9.11-9.069-9.11,8.189.049-13.65,3.682-3.577-3.682,2.884Z" transform="translate(-1387.237 -2750.665)" fill="#193566"/>
        <ellipse id="Ellipse_18-12" data-name="Ellipse 18" cx="8.5" cy="1.5" rx="8.5" ry="1.5" transform="translate(5.884 49.555)" fill="#193566" opacity="0.3"/>
      </g>
      <g id="Group_31-2" data-name="Group 31" transform="translate(82.083 98.91)">
        <g transform="matrix(1, 0, 0, 1, -127.08, -795.91)" filter="url(#Union_S-13)">
          <path id="Union_S-29" data-name="Union S" d="M23.144,66.748C62.5,20.872,42.539,0,23.144,0Zm0,0V0C3.312,0-17.1,20.872,23.144,66.748Z" transform="translate(172.86 862.66) rotate(180)" fill="#ecf0f3"/>
        </g>
        <g transform="matrix(1, 0, 0, 1, -127.08, -795.91)" filter="url(#Union_L-13)">
          <path id="Union_L-29" data-name="Union L" d="M23.144,66.748C62.5,20.872,42.539,0,23.144,0Zm0,0V0C3.312,0-17.1,20.872,23.144,66.748Z" transform="translate(172.86 862.66) rotate(180)" fill="#ecf0f3"/>
        </g>
        <path id="Path_58-13" data-name="Path 58" d="M1405.429,2753.343l.378,16.5,4.8-5.024-4.8,6.268v15.96l10.283-4.872,1.522-8.678-1.13,9.059-10.675,5.544.272,16.242,17.053-11.89-17.053,13.1.253,23.074h-1.247l.006-31.217-14.312-14.247,14.312,12.865-.077-21.443-5.785-5.619,5.785,4.529Z" transform="translate(-1382.918 -2749.136)" fill="#193566"/>
        <ellipse id="Ellipse_18-13" data-name="Ellipse 18" cx="13.738" cy="2.986" rx="13.738" ry="2.986" transform="translate(9.129 77.117)" fill="#193566" opacity="0.3"/>
      </g>
      <g id="Group_35-2" data-name="Group 35" transform="translate(510.804 27.297)">
        <g transform="matrix(1, 0, 0, 1, -555.8, -724.3)" filter="url(#Union_S-14)">
          <path id="Union_S-30" data-name="Union S" d="M28.917,122.607C78.086,38.339,53.149,0,28.917,0Zm0,0V0C4.138,0-21.362,38.339,28.917,122.607Z" transform="translate(613 846.9) rotate(180)" fill="#ecf0f3"/>
        </g>
        <g transform="matrix(1, 0, 0, 1, -555.8, -724.3)" filter="url(#Union_L-14)">
          <path id="Union_L-30" data-name="Union L" d="M28.917,122.607C78.086,38.339,53.149,0,28.917,0Zm0,0V0C4.138,0-21.362,38.339,28.917,122.607Z" transform="translate(613 846.9) rotate(180)" fill="#ecf0f3"/>
        </g>
        <path id="Path_58-14" data-name="Path 58" d="M1409.083,2753.343l.472,20.612,6-6.278-6,7.832v19.942l12.848-6.087,1.9-10.843-1.412,11.318-13.338,6.927.339,20.293L1431.2,2802.2l-21.307,16.37.316,28.829h-1.558l.008-39-17.881-17.8,17.881,16.074-.1-26.792-7.228-7.02,7.228,5.659Z" transform="translate(-1380.957 -2708.877)" fill="#193566"/>
        <ellipse id="Ellipse_18-14" data-name="Ellipse 18" cx="17.724" cy="3.731" rx="17.724" ry="3.731" transform="translate(10.859 135.563)" fill="#193566" opacity="0.3"/>
      </g>
      <g id="Group_36-2" data-name="Group 36" transform="translate(475.356)">
        <g transform="matrix(1, 0, 0, 1, -520.36, -697)" filter="url(#Union_S-15)">
          <path id="Union_S-31" data-name="Union S" d="M18.073,52.122C48.8,16.3,33.217,0,18.073,0Zm0,0V0C2.586,0-13.351,16.3,18.073,52.122Z" transform="translate(556.1 749.12) rotate(180)" fill="#ecf0f3"/>
        </g>
        <g transform="matrix(1, 0, 0, 1, -520.36, -697)" filter="url(#Union_L-15)">
          <path id="Union_L-31" data-name="Union L" d="M18.073,52.122C48.8,16.3,33.217,0,18.073,0Zm0,0V0C2.586,0-13.351,16.3,18.073,52.122Z" transform="translate(556.1 749.12) rotate(180)" fill="#ecf0f3"/>
        </g>
        <path id="Path_58-15" data-name="Path 58" d="M1402.219,2753.343l.3,12.882,3.75-3.923-3.75,4.895v12.463l8.03-3.8,1.189-6.777-.883,7.073-8.336,4.329.212,12.683,13.316-9.284-13.316,10.231.2,18.018h-.974l.005-24.376-11.175-11.125,11.175,10.046-.06-16.745-4.517-4.387,4.517,3.537Z" transform="translate(-1384.64 -2750.057)" fill="#193566"/>
        <ellipse id="Ellipse_18-15" data-name="Ellipse 18" cx="10.727" cy="2.332" rx="10.727" ry="2.332" transform="translate(7.128 60.218)" fill="#193566" opacity="0.3"/>
      </g>
      <g id="Group_37-2" data-name="Group 37" transform="translate(440.139 98.91)">
        <g transform="matrix(1, 0, 0, 1, -485.14, -795.91)" filter="url(#Union_S-16)">
          <path id="Union_S-32" data-name="Union S" d="M23.144,0c39.353,45.876,19.395,66.748,0,66.748Zm0,0V66.748C3.312,66.748-17.1,45.876,23.144,0Z" transform="translate(485.14 795.91)" fill="#ecf0f3"/>
        </g>
        <g transform="matrix(1, 0, 0, 1, -485.14, -795.91)" filter="url(#Union_L-16)">
          <path id="Union_L-32" data-name="Union L" d="M23.144,0c39.353,45.876,19.395,66.748,0,66.748Zm0,0V66.748C3.312,66.748-17.1,45.876,23.144,0Z" transform="translate(485.14 795.91)" fill="#ecf0f3"/>
        </g>
        <path id="Path_58-16" data-name="Path 58" d="M1408.481,2753.343l-.378,16.5-4.8-5.024,4.8,6.268v15.961l-10.283-4.872-1.522-8.678,1.13,9.059,10.675,5.544-.272,16.242-17.053-11.89,17.053,13.1-.253,23.074h1.247l-.007-31.217,14.312-14.247-14.312,12.865.077-21.444,5.785-5.618-5.785,4.529Z" transform="translate(-1385.214 -2749.136)" fill="#193566"/>
        <ellipse id="Ellipse_18-16" data-name="Ellipse 18" cx="13.738" cy="2.986" rx="13.738" ry="2.986" transform="translate(9.173 77.117)" fill="#193566" opacity="0.3"/>
      </g>
    </g>
    <text id="_H_Y_P_E" data-name=" H Y P E" transform="translate(140 533)" fill="#707070" font-size="40" font-family="YuGothic-Light, Yu Gothic" font-weight="300"><tspan x="0" y="0" xml:space="preserve"> H Y P E</tspan></text>
  </g>
</svg>
